<?xml version="1.0" encoding="UTF-8" standalone="no"?>
<!DOCTYPE svg PUBLIC "-//W3C//DTD SVG 1.1//EN"
 "http://www.w3.org/Graphics/SVG/1.1/DTD/svg11.dtd">
<!-- Generated by graphviz version 2.43.0 (0)
 -->
<!-- Title: aas_client.AasHttpClient Pages: 1 -->
<!--zoomable 409 -->

<svg id="main" version="1.1" xmlns="http://www.w3.org/2000/svg" xmlns:xlink="http://www.w3.org/1999/xlink" xml:space="preserve" onload="init(evt)">
<style type="text/css"><![CDATA[
.node, .edge {opacity: 0.7;}
.node.selected, .edge.selected {opacity: 1;}
.edge:hover path { stroke: red; }
.edge:hover polygon { stroke: red; fill: red; }
]]></style>

<defs>
  <circle id="rim" cx="0" cy="0" r="7"/>
  <circle id="rim2" cx="0" cy="0" r="3.5"/>
  <g id="zoomPlus">
    <use xlink:href="#rim" fill="#404040"><set attributeName="fill" to="#808080" begin="zoomplus.mouseover" end="zoomplus.mouseout"/></use>
    <path d="M-4,0h8M0,-4v8" fill="none" stroke="white" stroke-width="1.5" pointer-events="none"/>
  </g>
  <g id="zoomMin">
    <use xlink:href="#rim" fill="#404040"><set attributeName="fill" to="#808080" begin="zoomminus.mouseover" end="zoomminus.mouseout"/></use>
    <path d="M-4,0h8" fill="none" stroke="white" stroke-width="1.5" pointer-events="none"/>
  </g>
  <g id="arrowUp" transform="translate(30 24)">
    <use xlink:href="#rim"/>
    <path pointer-events="none" fill="none" stroke="white" stroke-width="1.5" d="M0,-3.0v7 M-2.5,-0.5L0,-3.0L2.5,-0.5"/>
  </g>
  <g id="arrowRight" transform="rotate(90) translate(36 -43)">
    <use xlink:href="#rim"/>
    <path pointer-events="none" fill="none" stroke="white" stroke-width="1.5" d="M0,-3.0v7 M-2.5,-0.5L0,-3.0L2.5,-0.5"/>
  </g>
  <g id="arrowDown" transform="rotate(180) translate(-30 -48)">
    <use xlink:href="#rim"/>
    <path pointer-events="none" fill="none" stroke="white" stroke-width="1.5" d="M0,-3.0v7 M-2.5,-0.5L0,-3.0L2.5,-0.5"/>
  </g>
  <g id="arrowLeft" transform="rotate(270) translate(-36 17)">
    <use xlink:href="#rim"/>
    <path pointer-events="none" fill="none" stroke="white" stroke-width="1.5" d="M0,-3.0v7 M-2.5,-0.5L0,-3.0L2.5,-0.5"/>
  </g>
  <g id="resetDef">
    <use xlink:href="#rim2" fill="#404040"><set attributeName="fill" to="#808080" begin="reset.mouseover" end="reset.mouseout"/></use>
  </g>
</defs>
<script type="application/ecmascript">
var viewWidth = 540;
var viewHeight = 409;
var sectionId = 'dynsection-1';
</script>
<script type="application/ecmascript" xlink:href="svg.min.js"/>
<svg id="graph" class="graph">
<g id="viewport">
<title>aas_client.AasHttpClient</title>
<!-- Node1 -->
<g id="Node000001" class="node">
<title>Node1</title>
<g id="a_Node000001"><a xlink:title="Represents a AasHttpClient to communicate with a REST API.">
<polygon fill="#999999" stroke="#666666" points="532,-215.5 395,-215.5 395,-196.5 532,-196.5 532,-215.5"/>
<text text-anchor="middle" x="463.5" y="-203.5" font-family="Helvetica,sans-Serif" font-size="10.00">aas_client.AasHttpClient</text>
</a>
</g>
</g>
<!-- Node2 -->
<g id="Node000002" class="node">
<title>Node2</title>
<g id="a_Node000002"><a xlink:title=" ">
<polygon fill="white" stroke="#666666" points="208.5,-400.5 137.5,-400.5 137.5,-381.5 208.5,-381.5 208.5,-400.5"/>
<text text-anchor="middle" x="173" y="-388.5" font-family="Helvetica,sans-Serif" font-size="10.00">BaseModel</text>
</a>
</g>
</g>
<!-- Node2&#45;&gt;Node1 -->
<g id="edge1_Node000001_Node000002" class="edge">
<title>Node2&#45;&gt;Node1</title>
<g id="a_edge1_Node000001_Node000002"><a xlink:title=" ">
<path fill="none" stroke="#63b8ff" d="M218.71,-397.24C262.81,-400.98 330.22,-399.94 377,-368 432.42,-330.17 454.57,-244.65 460.64,-215.75"/>
<polygon fill="#63b8ff" stroke="#63b8ff" points="218.86,-393.74 208.57,-396.27 218.19,-400.71 218.86,-393.74"/>
</a>
</g>
</g>
<!-- Node3 -->
<g id="Node000003" class="node">
<title>Node3</title>
<g id="a_Node000003"><a xlink:title=" ">
<polygon fill="white" stroke="#666666" points="232.5,-363.5 113.5,-363.5 113.5,-344.5 232.5,-344.5 232.5,-363.5"/>
<text text-anchor="middle" x="173" y="-351.5" font-family="Helvetica,sans-Serif" font-size="10.00">AuthenticationConfig</text>
</a>
</g>
</g>
<!-- Node3&#45;&gt;Node1 -->
<g id="edge2_Node000001_Node000003" class="edge">
<title>Node3&#45;&gt;Node1</title>
<g id="a_edge2_Node000001_Node000003"><a xlink:title=" ">
<path fill="none" stroke="#9a32cd" stroke-dasharray="5,2" d="M242.78,-356.86C284.36,-355.56 336.9,-348.32 377,-324 420.91,-297.37 448.94,-238.77 458.67,-215.65"/>
<polygon fill="#9a32cd" stroke="#9a32cd" points="242.66,-353.36 232.73,-357.06 242.8,-360.36 242.66,-353.36"/>
</a>
</g>
<text text-anchor="middle" x="330" y="-356" font-family="Helvetica,sans-Serif" font-size="10.00" fill="grey"> auth_settings</text>
</g>
<!-- Node4 -->
<g id="Node000004" class="node">
<title>Node4</title>
<g id="a_Node000004"><a xlink:title=" ">
<polygon fill="white" stroke="#666666" points="200,-326.5 146,-326.5 146,-307.5 200,-307.5 200,-326.5"/>
<text text-anchor="middle" x="173" y="-314.5" font-family="Helvetica,sans-Serif" font-size="10.00">Session</text>
</a>
</g>
</g>
<!-- Node4&#45;&gt;Node1 -->
<g id="edge3_Node000001_Node000004" class="edge">
<title>Node4&#45;&gt;Node1</title>
<g id="a_edge3_Node000001_Node000004"><a xlink:title=" ">
<path fill="none" stroke="#9a32cd" stroke-dasharray="5,2" d="M210.1,-316.68C252.15,-315.01 322.79,-308.1 377,-282 410.82,-265.72 441.31,-232.05 454.95,-215.55"/>
<polygon fill="#9a32cd" stroke="#9a32cd" points="209.93,-313.19 200.05,-317 210.16,-320.18 209.93,-313.19"/>
</a>
</g>
<text text-anchor="middle" x="330" y="-312" font-family="Helvetica,sans-Serif" font-size="10.00" fill="grey"> _session</text>
</g>
<!-- Node5 -->
<g id="Node000005" class="node">
<title>Node5</title>
<g id="a_Node000005"><a xlink:title=" ">
<polygon fill="white" stroke="#666666" points="211,-289.5 135,-289.5 135,-270.5 211,-270.5 211,-289.5"/>
<text text-anchor="middle" x="173" y="-277.5" font-family="Helvetica,sans-Serif" font-size="10.00">AuthMethod</text>
</a>
</g>
</g>
<!-- Node5&#45;&gt;Node1 -->
<g id="edge4_Node000001_Node000005" class="edge">
<title>Node5&#45;&gt;Node1</title>
<g id="a_edge4_Node000001_Node000005"><a xlink:title=" ">
<path fill="none" stroke="#9a32cd" stroke-dasharray="5,2" d="M221.14,-275.77C262.83,-271.17 324.94,-262.2 377,-246 401.88,-238.26 428.84,-224.7 445.69,-215.54"/>
<polygon fill="#9a32cd" stroke="#9a32cd" points="220.58,-272.31 211,-276.85 221.31,-279.27 220.58,-272.31"/>
</a>
</g>
<text text-anchor="middle" x="330" y="-270" font-family="Helvetica,sans-Serif" font-size="10.00" fill="grey"> _auth_method</text>
</g>
<!-- Node6 -->
<g id="Node000006" class="node">
<title>Node6</title>
<g id="a_Node000006"><a xlink:title=" ">
<polygon fill="white" stroke="#666666" points="244.5,-252.5 101.5,-252.5 101.5,-233.5 244.5,-233.5 244.5,-252.5"/>
<text text-anchor="middle" x="173" y="-240.5" font-family="Helvetica,sans-Serif" font-size="10.00">ShellRepoImplementation</text>
</a>
</g>
</g>
<!-- Node6&#45;&gt;Node1 -->
<g id="edge5_Node000001_Node000006" class="edge">
<title>Node6&#45;&gt;Node1</title>
<g id="a_edge5_Node000001_Node000006"><a xlink:title=" ">
<path fill="none" stroke="#9a32cd" stroke-dasharray="5,2" d="M254.9,-235.46C292.15,-231.68 336.9,-226.68 377,-221 388.19,-219.41 400.16,-217.47 411.5,-215.51"/>
<polygon fill="#9a32cd" stroke="#9a32cd" points="254.2,-232.02 244.6,-236.5 254.9,-238.98 254.2,-232.02"/>
</a>
</g>
<text text-anchor="middle" x="330" y="-234" font-family="Helvetica,sans-Serif" font-size="10.00" fill="grey"> shells</text>
</g>
<!-- Node7 -->
<g id="Node000007" class="node">
<title>Node7</title>
<g id="a_Node000007"><a xlink:title=" ">
<polygon fill="white" stroke="#666666" points="257,-215.5 89,-215.5 89,-196.5 257,-196.5 257,-215.5"/>
<text text-anchor="middle" x="173" y="-203.5" font-family="Helvetica,sans-Serif" font-size="10.00">SubmodelRepoImplementation</text>
</a>
</g>
</g>
<!-- Node7&#45;&gt;Node1 -->
<g id="edge6_Node000001_Node000007" class="edge">
<title>Node7&#45;&gt;Node1</title>
<g id="a_edge6_Node000001_Node000007"><a xlink:title=" ">
<path fill="none" stroke="#9a32cd" stroke-dasharray="5,2" d="M267.18,-206C308.64,-206 356.58,-206 394.58,-206"/>
<polygon fill="#9a32cd" stroke="#9a32cd" points="267.06,-202.5 257.06,-206 267.06,-209.5 267.06,-202.5"/>
</a>
</g>
<text text-anchor="middle" x="330" y="-209" font-family="Helvetica,sans-Serif" font-size="10.00" fill="grey"> submodels</text>
</g>
<!-- Node8 -->
<g id="Node000008" class="node">
<title>Node8</title>
<g id="a_Node000008"><a xlink:title=" ">
<polygon fill="white" stroke="#666666" points="252.5,-178.5 93.5,-178.5 93.5,-159.5 252.5,-159.5 252.5,-178.5"/>
<text text-anchor="middle" x="173" y="-166.5" font-family="Helvetica,sans-Serif" font-size="10.00">ShellRegistryImplementation</text>
</a>
</g>
</g>
<!-- Node8&#45;&gt;Node1 -->
<g id="edge7_Node000001_Node000008" class="edge">
<title>Node8&#45;&gt;Node1</title>
<g id="a_edge7_Node000001_Node000008"><a xlink:title=" ">
<path fill="none" stroke="#9a32cd" stroke-dasharray="5,2" d="M263.06,-177.37C298.57,-181.05 339.78,-185.72 377,-191 388.19,-192.59 400.16,-194.53 411.5,-196.49"/>
<polygon fill="#9a32cd" stroke="#9a32cd" points="263.02,-173.85 252.72,-176.32 262.31,-180.81 263.02,-173.85"/>
</a>
</g>
<text text-anchor="middle" x="330" y="-194" font-family="Helvetica,sans-Serif" font-size="10.00" fill="grey"> shell_registry</text>
</g>
<!-- Node9 -->
<g id="Node000009" class="node">
<title>Node9</title>
<g id="a_Node000009"><a xlink:title=" ">
<polygon fill="white" stroke="#666666" points="253,-141.5 93,-141.5 93,-122.5 253,-122.5 253,-141.5"/>
<text text-anchor="middle" x="173" y="-129.5" font-family="Helvetica,sans-Serif" font-size="10.00">ExperimentalImplementation</text>
</a>
</g>
</g>
<!-- Node9&#45;&gt;Node1 -->
<g id="edge8_Node000001_Node000009" class="edge">
<title>Node9&#45;&gt;Node1</title>
<g id="a_edge8_Node000001_Node000009"><a xlink:title=" ">
<path fill="none" stroke="#9a32cd" stroke-dasharray="5,2" d="M263.26,-140.9C299.15,-145.92 340.57,-153.56 377,-165 402.13,-172.89 429.25,-186.93 446.05,-196.36"/>
<polygon fill="#9a32cd" stroke="#9a32cd" points="263.68,-137.43 253.3,-139.56 262.74,-144.36 263.68,-137.43"/>
</a>
</g>
<text text-anchor="middle" x="330" y="-168" font-family="Helvetica,sans-Serif" font-size="10.00" fill="grey"> experimental</text>
</g>
<!-- Node10 -->
<g id="Node000010" class="node">
<title>Node10</title>
<g id="a_Node000010"><a xlink:title=" ">
<polygon fill="white" stroke="#666666" points="265,-104.5 81,-104.5 81,-85.5 265,-85.5 265,-104.5"/>
<text text-anchor="middle" x="173" y="-92.5" font-family="Helvetica,sans-Serif" font-size="10.00">SubmodelRegistryImplementation</text>
</a>
</g>
</g>
<!-- Node10&#45;&gt;Node1 -->
<g id="edge9_Node000001_Node000010" class="edge">
<title>Node10&#45;&gt;Node1</title>
<g id="a_edge9_Node000001_Node000010"><a xlink:title=" ">
<path fill="none" stroke="#9a32cd" stroke-dasharray="5,2" d="M275.36,-99.9C308.97,-104.5 345.76,-112.89 377,-128 411.37,-144.62 441.82,-179.53 455.23,-196.43"/>
<polygon fill="#9a32cd" stroke="#9a32cd" points="275.41,-96.38 265.04,-98.59 274.53,-103.32 275.41,-96.38"/>
</a>
</g>
<text text-anchor="middle" x="330" y="-131" font-family="Helvetica,sans-Serif" font-size="10.00" fill="grey"> submodel_registry</text>
</g>
<!-- Node11 -->
<g id="Node000011" class="node">
<title>Node11</title>
<g id="a_Node000011"><a xlink:title=" ">
<polygon fill="white" stroke="#666666" points="207,-67.5 139,-67.5 139,-48.5 207,-48.5 207,-67.5"/>
<text text-anchor="middle" x="173" y="-55.5" font-family="Helvetica,sans-Serif" font-size="10.00">TokenData</text>
</a>
</g>
</g>
<!-- Node11&#45;&gt;Node1 -->
<g id="edge10_Node000001_Node000011" class="edge">
<title>Node11&#45;&gt;Node1</title>
<g id="a_edge10_Node000001_Node000011"><a xlink:title=" ">
<path fill="none" stroke="#9a32cd" stroke-dasharray="5,2" d="M217.46,-54.43C260.94,-52.94 328.22,-56.47 377,-86 421.42,-112.89 449.16,-172.59 458.74,-196.16"/>
<polygon fill="#9a32cd" stroke="#9a32cd" points="217.04,-50.95 207.21,-54.89 217.35,-57.94 217.04,-50.95"/>
</a>
</g>
<text text-anchor="middle" x="330" y="-89" font-family="Helvetica,sans-Serif" font-size="10.00" fill="grey"> _cached_token</text>
</g>
<!-- Node12 -->
<g id="Node000012" class="node">
<title>Node12</title>
<g id="a_Node000012"><a xlink:href="classaas__http__client_1_1utilities_1_1constants_1_1LogIntensity.html" target="_top" xlink:title="Log intensity levels for the AAS HTTP client.">
<polygon fill="white" stroke="#666666" points="265,-30 81,-30 81,0 265,0 265,-30"/>
<text text-anchor="start" x="89" y="-18" font-family="Helvetica,sans-Serif" font-size="10.00">aas_http_client.utilities.constants.</text>
<text text-anchor="middle" x="173" y="-7" font-family="Helvetica,sans-Serif" font-size="10.00">LogIntensity</text>
</a>
</g>
</g>
<!-- Node12&#45;&gt;Node1 -->
<g id="edge11_Node000001_Node000012" class="edge">
<title>Node12&#45;&gt;Node1</title>
<g id="a_edge11_Node000001_Node000012"><a xlink:title=" ">
<path fill="none" stroke="#9a32cd" stroke-dasharray="5,2" d="M275.24,-10.08C310.11,-12.92 347.72,-21.48 377,-42 432.48,-80.88 454.59,-167.08 460.65,-196.18"/>
<polygon fill="#9a32cd" stroke="#9a32cd" points="275.22,-6.57 265.01,-9.4 274.75,-13.56 275.22,-6.57"/>
</a>
</g>
<text text-anchor="middle" x="330" y="-45" font-family="Helvetica,sans-Serif" font-size="10.00" fill="grey"> _log_intensity</text>
</g>
<!-- Node13 -->
<g id="Node000013" class="node">
<title>Node13</title>
<g id="a_Node000013"><a xlink:title=" ">
<polygon fill="white" stroke="#666666" points="44,-24.5 0,-24.5 0,-5.5 44,-5.5 44,-24.5"/>
<text text-anchor="middle" x="22" y="-12.5" font-family="Helvetica,sans-Serif" font-size="10.00">Enum</text>
</a>
</g>
</g>
<!-- Node13&#45;&gt;Node12 -->
<g id="edge12_Node000012_Node000013" class="edge">
<title>Node13&#45;&gt;Node12</title>
<g id="a_edge12_Node000012_Node000013"><a xlink:title=" ">
<path fill="none" stroke="#63b8ff" d="M54.26,-15C62.27,-15 71.3,-15 80.7,-15"/>
<polygon fill="#63b8ff" stroke="#63b8ff" points="54.03,-11.5 44.03,-15 54.03,-18.5 54.03,-11.5"/>
</a>
</g>
</g>
</g>
</svg>

<g id="navigator" transform="translate(0 0)" fill="#404254">
  <rect fill="#f2f5e9" fill-opacity="0.5" stroke="#606060" stroke-width=".5" x="0" y="0" width="60" height="60"/>
  <use id="zoomplus" xlink:href="#zoomPlus" x="17" y="9" onmousedown="handleZoom(evt,'in')"/>
  <use id="zoomminus" xlink:href="#zoomMin" x="42" y="9" onmousedown="handleZoom(evt,'out')"/>
  <use id="reset" xlink:href="#resetDef" x="30" y="36" onmousedown="handleReset()"/>
   <use id="arrowup" xlink:href="#arrowUp" x="0" y="0" onmousedown="handlePan(0,-1)"/>
  <use id="arrowright" xlink:href="#arrowRight" x="0" y="0" onmousedown="handlePan(1,0)"/>
  <use id="arrowdown" xlink:href="#arrowDown" x="0" y="0" onmousedown="handlePan(0,1)"/>
  <use id="arrowleft" xlink:href="#arrowLeft" x="0" y="0" onmousedown="handlePan(-1,0)"/>
</g>
<svg viewBox="0 0 15 15" width="100%" height="30px" preserveAspectRatio="xMaxYMin meet">
 <g id="arrow_out" transform="scale(0.3 0.3)">
  <a xlink:href="classaas__client_1_1AasHttpClient__coll__graph_org.svg" target="_base">
   <rect id="button" ry="5" rx="5" y="6" x="6" height="38" width="38"
        fill="#f2f5e9" fill-opacity="0.5" stroke="#606060" stroke-width="1.0"/>
   <path id="arrow"
     d="M 11.500037,31.436501 C 11.940474,20.09759 22.043105,11.32322 32.158766,21.979434 L 37.068811,17.246167 C 37.068811,17.246167 37.088388,32 37.088388,32 L 22.160133,31.978069 C 22.160133,31.978069 26.997745,27.140456 26.997745,27.140456 C 18.528582,18.264221 13.291696,25.230495 11.500037,31.436501 z"
     style="fill:#404040;"/>
  </a>
 </g>
</svg>

<style type='text/css'>
<![CDATA[
[data-mouse-over-selected='false'] { opacity: 0.7; }
[data-mouse-over-selected='true']  { opacity: 1.0; }
]]>
</style>
<script type="application/ecmascript"><![CDATA[
document.addEventListener('DOMContentLoaded', (event) => {
  highlightEdges();
  highlightAdjacentNodes();
});
]]></script>
</svg>
