<?xml version="1.0" encoding="UTF-8" standalone="no"?>
<!DOCTYPE svg PUBLIC "-//W3C//DTD SVG 1.1//EN"
 "http://www.w3.org/Graphics/SVG/1.1/DTD/svg11.dtd">
<!-- Generated by graphviz version 2.43.0 (0)
 -->
<!-- Title: aas_client.AasHttpClient Pages: 1 -->
<svg width="459pt" height="360pt"
 viewBox="0.00 0.00 459.00 360.00" xmlns="http://www.w3.org/2000/svg" xmlns:xlink="http://www.w3.org/1999/xlink">

<svg id="main" version="1.1" xmlns="http://www.w3.org/2000/svg" xmlns:xlink="http://www.w3.org/1999/xlink" xml:space="preserve" onload="init(evt)">
<style type="text/css"><![CDATA[
.node, .edge {opacity: 0.7;}
.node.selected, .edge.selected {opacity: 1;}
.edge:hover path { stroke: red; }
.edge:hover polygon { stroke: red; fill: red; }
]]></style>
<script type="application/ecmascript" xlink:href="svg.min.js"/>
<svg id="graph" class="graph">
<g id="graph0" class="graph" transform="scale(1 1) rotate(0) translate(4 356)">
<title>aas_client.AasHttpClient</title>
<!-- Node1 -->
<g id="Node000001" class="node">
<title>Node1</title>
<g id="a_Node000001"><a xlink:title="Represents a AasHttpClient to communicate with a REST API.">
<polygon fill="#999999" stroke="#666666" points="451,-185 314,-185 314,-166 451,-166 451,-185"/>
<text text-anchor="middle" x="382.5" y="-173" font-family="Helvetica,sans-Serif" font-size="10.00">aas_client.AasHttpClient</text>
</a>
</g>
</g>
<!-- Node2 -->
<g id="Node000002" class="node">
<title>Node2</title>
<g id="a_Node000002"><a xlink:title=" ">
<polygon fill="white" stroke="#666666" points="127.5,-352 56.5,-352 56.5,-333 127.5,-333 127.5,-352"/>
<text text-anchor="middle" x="92" y="-340" font-family="Helvetica,sans-Serif" font-size="10.00">BaseModel</text>
</a>
</g>
</g>
<!-- Node2&#45;&gt;Node1 -->
<g id="edge1_Node000001_Node000002" class="edge">
<title>Node2&#45;&gt;Node1</title>
<g id="a_edge1_Node000001_Node000002"><a xlink:title=" ">
<path fill="none" stroke="#63b8ff" d="M137.75,-346.79C181.6,-348.74 248.56,-345.46 296,-314.5 345.11,-282.45 370.7,-211.35 378.7,-185.31"/>
<polygon fill="#63b8ff" stroke="#63b8ff" points="137.85,-343.29 127.67,-346.24 137.47,-350.28 137.85,-343.29"/>
</a>
</g>
</g>
<!-- Node3 -->
<g id="Node000003" class="node">
<title>Node3</title>
<g id="a_Node000003"><a xlink:title=" ">
<polygon fill="white" stroke="#666666" points="151.5,-315 32.5,-315 32.5,-296 151.5,-296 151.5,-315"/>
<text text-anchor="middle" x="92" y="-303" font-family="Helvetica,sans-Serif" font-size="10.00">AuthenticationConfig</text>
</a>
</g>
</g>
<!-- Node3&#45;&gt;Node1 -->
<g id="edge2_Node000001_Node000003" class="edge">
<title>Node3&#45;&gt;Node1</title>
<g id="a_edge2_Node000001_Node000003"><a xlink:title=" ">
<path fill="none" stroke="#9a32cd" stroke-dasharray="5,2" d="M162.15,-305.25C203.27,-302.43 255.2,-294.03 296,-271.5 334.49,-250.24 364.37,-204.85 376.1,-185.06"/>
<polygon fill="#9a32cd" stroke="#9a32cd" points="161.72,-301.77 151.94,-305.85 162.13,-308.76 161.72,-301.77"/>
</a>
</g>
<text text-anchor="middle" x="249" y="-302.5" font-family="Helvetica,sans-Serif" font-size="10.00" fill="grey"> auth_settings</text>
</g>
<!-- Node4 -->
<g id="Node000004" class="node">
<title>Node4</title>
<g id="a_Node000004"><a xlink:title=" ">
<polygon fill="white" stroke="#666666" points="119,-278 65,-278 65,-259 119,-259 119,-278"/>
<text text-anchor="middle" x="92" y="-266" font-family="Helvetica,sans-Serif" font-size="10.00">Session</text>
</a>
</g>
</g>
<!-- Node4&#45;&gt;Node1 -->
<g id="edge3_Node000001_Node000004" class="edge">
<title>Node4&#45;&gt;Node1</title>
<g id="a_edge3_Node000001_Node000004"><a xlink:title=" ">
<path fill="none" stroke="#9a32cd" stroke-dasharray="5,2" d="M129.46,-266.54C171.07,-263.3 240.54,-254.76 296,-232.5 325.3,-220.74 354.96,-197.99 370.47,-185.07"/>
<polygon fill="#9a32cd" stroke="#9a32cd" points="128.98,-263.07 119.25,-267.28 129.48,-270.05 128.98,-263.07"/>
</a>
</g>
<text text-anchor="middle" x="249" y="-259.5" font-family="Helvetica,sans-Serif" font-size="10.00" fill="grey"> _session</text>
</g>
<!-- Node5 -->
<g id="Node000005" class="node">
<title>Node5</title>
<g id="a_Node000005"><a xlink:title=" ">
<polygon fill="white" stroke="#666666" points="130,-241 54,-241 54,-222 130,-222 130,-241"/>
<text text-anchor="middle" x="92" y="-229" font-family="Helvetica,sans-Serif" font-size="10.00">AuthMethod</text>
</a>
</g>
</g>
<!-- Node5&#45;&gt;Node1 -->
<g id="edge4_Node000001_Node000005" class="edge">
<title>Node5&#45;&gt;Node1</title>
<g id="a_edge4_Node000001_Node000005"><a xlink:title=" ">
<path fill="none" stroke="#9a32cd" stroke-dasharray="5,2" d="M140.42,-226.51C181.79,-221.68 243.29,-213.34 296,-201.5 315.53,-197.11 337.09,-190.55 353.67,-185.11"/>
<polygon fill="#9a32cd" stroke="#9a32cd" points="139.88,-223.05 130.35,-227.66 140.68,-230 139.88,-223.05"/>
</a>
</g>
<text text-anchor="middle" x="249" y="-220.5" font-family="Helvetica,sans-Serif" font-size="10.00" fill="grey"> _auth_method</text>
</g>
<!-- Node6 -->
<g id="Node000006" class="node">
<title>Node6</title>
<g id="a_Node000006"><a xlink:title=" ">
<polygon fill="white" stroke="#666666" points="163.5,-204 20.5,-204 20.5,-185 163.5,-185 163.5,-204"/>
<text text-anchor="middle" x="92" y="-192" font-family="Helvetica,sans-Serif" font-size="10.00">ShellRepoImplementation</text>
</a>
</g>
</g>
<!-- Node6&#45;&gt;Node1 -->
<g id="edge5_Node000001_Node000006" class="edge">
<title>Node6&#45;&gt;Node1</title>
<g id="a_edge5_Node000001_Node000006"><a xlink:title=" ">
<path fill="none" stroke="#9a32cd" stroke-dasharray="5,2" d="M173.69,-189.19C217.77,-186.28 271.74,-182.73 313.64,-179.97"/>
<polygon fill="#9a32cd" stroke="#9a32cd" points="173.32,-185.7 163.58,-189.85 173.78,-192.69 173.32,-185.7"/>
</a>
</g>
<text text-anchor="middle" x="249" y="-189.5" font-family="Helvetica,sans-Serif" font-size="10.00" fill="grey"> shells</text>
</g>
<!-- Node7 -->
<g id="Node000007" class="node">
<title>Node7</title>
<g id="a_Node000007"><a xlink:title=" ">
<polygon fill="white" stroke="#666666" points="176,-167 8,-167 8,-148 176,-148 176,-167"/>
<text text-anchor="middle" x="92" y="-155" font-family="Helvetica,sans-Serif" font-size="10.00">SubmodelRepoImplementation</text>
</a>
</g>
</g>
<!-- Node7&#45;&gt;Node1 -->
<g id="edge6_Node000001_Node000007" class="edge">
<title>Node7&#45;&gt;Node1</title>
<g id="a_edge6_Node000001_Node000007"><a xlink:title=" ">
<path fill="none" stroke="#9a32cd" stroke-dasharray="5,2" d="M186.19,-156.55C220.74,-156.94 260.22,-158.23 296,-161.5 307.23,-162.53 319.22,-164.15 330.56,-165.94"/>
<polygon fill="#9a32cd" stroke="#9a32cd" points="186.14,-153.05 176.11,-156.47 186.08,-160.05 186.14,-153.05"/>
</a>
</g>
<text text-anchor="middle" x="249" y="-164.5" font-family="Helvetica,sans-Serif" font-size="10.00" fill="grey"> submodels</text>
</g>
<!-- Node8 -->
<g id="Node000008" class="node">
<title>Node8</title>
<g id="a_Node000008"><a xlink:title=" ">
<polygon fill="white" stroke="#666666" points="171.5,-130 12.5,-130 12.5,-111 171.5,-111 171.5,-130"/>
<text text-anchor="middle" x="92" y="-118" font-family="Helvetica,sans-Serif" font-size="10.00">ShellRegistryImplementation</text>
</a>
</g>
</g>
<!-- Node8&#45;&gt;Node1 -->
<g id="edge7_Node000001_Node000008" class="edge">
<title>Node8&#45;&gt;Node1</title>
<g id="a_edge7_Node000001_Node000008"><a xlink:title=" ">
<path fill="none" stroke="#9a32cd" stroke-dasharray="5,2" d="M182.35,-124.42C218.08,-127.36 259.36,-132.5 296,-141.5 319.43,-147.25 344.96,-158.05 361.97,-165.94"/>
<polygon fill="#9a32cd" stroke="#9a32cd" points="182.19,-120.89 171.95,-123.61 181.64,-127.87 182.19,-120.89"/>
</a>
</g>
<text text-anchor="middle" x="249" y="-144.5" font-family="Helvetica,sans-Serif" font-size="10.00" fill="grey"> shell_registry</text>
</g>
<!-- Node9 -->
<g id="Node000009" class="node">
<title>Node9</title>
<g id="a_Node000009"><a xlink:title=" ">
<polygon fill="white" stroke="#666666" points="172,-93 12,-93 12,-74 172,-74 172,-93"/>
<text text-anchor="middle" x="92" y="-81" font-family="Helvetica,sans-Serif" font-size="10.00">ExperimentalImplementation</text>
</a>
</g>
</g>
<!-- Node9&#45;&gt;Node1 -->
<g id="edge8_Node000001_Node000009" class="edge">
<title>Node9&#45;&gt;Node1</title>
<g id="a_edge8_Node000001_Node000009"><a xlink:title=" ">
<path fill="none" stroke="#9a32cd" stroke-dasharray="5,2" d="M182.18,-85.43C218.58,-88.73 260.4,-95.82 296,-110.5 327.37,-123.44 357.35,-150.83 372.06,-165.59"/>
<polygon fill="#9a32cd" stroke="#9a32cd" points="182.32,-81.93 172.07,-84.6 181.75,-88.91 182.32,-81.93"/>
</a>
</g>
<text text-anchor="middle" x="249" y="-113.5" font-family="Helvetica,sans-Serif" font-size="10.00" fill="grey"> experimental</text>
</g>
<!-- Node10 -->
<g id="Node000010" class="node">
<title>Node10</title>
<g id="a_Node000010"><a xlink:title=" ">
<polygon fill="white" stroke="#666666" points="184,-56 0,-56 0,-37 184,-37 184,-56"/>
<text text-anchor="middle" x="92" y="-44" font-family="Helvetica,sans-Serif" font-size="10.00">SubmodelRegistryImplementation</text>
</a>
</g>
</g>
<!-- Node10&#45;&gt;Node1 -->
<g id="edge9_Node000001_Node000010" class="edge">
<title>Node10&#45;&gt;Node1</title>
<g id="a_edge9_Node000001_Node000010"><a xlink:title=" ">
<path fill="none" stroke="#9a32cd" stroke-dasharray="5,2" d="M194.12,-44.77C228.19,-47.9 265.32,-55.63 296,-72.5 336.53,-94.78 365.71,-144.66 376.7,-165.77"/>
<polygon fill="#9a32cd" stroke="#9a32cd" points="194.37,-41.28 184.12,-43.97 193.81,-48.25 194.37,-41.28"/>
</a>
</g>
<text text-anchor="middle" x="249" y="-75.5" font-family="Helvetica,sans-Serif" font-size="10.00" fill="grey"> submodel_registry</text>
</g>
<!-- Node11 -->
<g id="Node000011" class="node">
<title>Node11</title>
<g id="a_Node000011"><a xlink:title=" ">
<polygon fill="white" stroke="#666666" points="126,-19 58,-19 58,0 126,0 126,-19"/>
<text text-anchor="middle" x="92" y="-7" font-family="Helvetica,sans-Serif" font-size="10.00">TokenData</text>
</a>
</g>
</g>
<!-- Node11&#45;&gt;Node1 -->
<g id="edge10_Node000001_Node000011" class="edge">
<title>Node11&#45;&gt;Node1</title>
<g id="a_edge10_Node000001_Node000011"><a xlink:title=" ">
<path fill="none" stroke="#9a32cd" stroke-dasharray="5,2" d="M136.21,-3.31C180,0.67 247.97,0.33 296,-30.5 347.4,-63.49 371.86,-139.26 379.11,-165.97"/>
<polygon fill="#9a32cd" stroke="#9a32cd" points="135.76,0.16 126.17,-4.33 136.47,-6.8 135.76,0.16"/>
</a>
</g>
<text text-anchor="middle" x="249" y="-33.5" font-family="Helvetica,sans-Serif" font-size="10.00" fill="grey"> _cached_token</text>
</g>
</g>
</svg>
</svg>

<style type='text/css'>
<![CDATA[
[data-mouse-over-selected='false'] { opacity: 0.7; }
[data-mouse-over-selected='true']  { opacity: 1.0; }
]]>
</style>
<script type="application/ecmascript"><![CDATA[
document.addEventListener('DOMContentLoaded', (event) => {
  highlightEdges();
  highlightAdjacentNodes();
});
]]></script>
</svg>
