<?xml version="1.0" encoding="UTF-8" standalone="no"?>
<!DOCTYPE svg PUBLIC "-//W3C//DTD SVG 1.1//EN"
 "http://www.w3.org/Graphics/SVG/1.1/DTD/svg11.dtd">
<!-- Generated by graphviz version 2.43.0 (0)
 -->
<!-- Title: config_classes.AuthenticationConfig Pages: 1 -->
<svg width="464pt" height="160pt"
 viewBox="0.00 0.00 463.75 160.00" xmlns="http://www.w3.org/2000/svg" xmlns:xlink="http://www.w3.org/1999/xlink">
<g id="graph0" class="graph" transform="scale(1 1) rotate(0) translate(4 156)">
<title>config_classes.AuthenticationConfig</title>
<!-- Node1 -->
<g id="Node000001" class="node">
<title>Node1</title>
<g id="a_Node000001"><a xlink:title="Authentication Configuration.">
<polygon fill="#999999" stroke="#666666" points="237.75,-30 76.75,-30 76.75,0 237.75,0 237.75,-30"/>
<text text-anchor="start" x="84.75" y="-18" font-family="Helvetica,sans-Serif" font-size="10.00">config_classes.Authentication</text>
<text text-anchor="middle" x="157.25" y="-7" font-family="Helvetica,sans-Serif" font-size="10.00">Config</text>
</a>
</g>
</g>
<!-- Node2 -->
<g id="Node000002" class="node">
<title>Node2</title>
<g id="a_Node000002"><a xlink:title=" ">
<polygon fill="white" stroke="#666666" points="162.75,-152 91.75,-152 91.75,-133 162.75,-133 162.75,-152"/>
<text text-anchor="middle" x="127.25" y="-140" font-family="Helvetica,sans-Serif" font-size="10.00">BaseModel</text>
</a>
</g>
</g>
<!-- Node2&#45;&gt;Node1 -->
<g id="edge1_Node000001_Node000002" class="edge">
<title>Node2&#45;&gt;Node1</title>
<g id="a_edge1_Node000001_Node000002"><a xlink:title=" ">
<path fill="none" stroke="#63b8ff" d="M81.56,-134.88C38.46,-126.54 -16.56,-109.25 5.25,-77 21.57,-52.86 49.19,-38.27 76.45,-29.45"/>
<polygon fill="#63b8ff" stroke="#63b8ff" points="81.19,-138.37 91.66,-136.71 82.44,-131.48 81.19,-138.37"/>
</a>
</g>
</g>
<!-- Node3 -->
<g id="Node000003" class="node">
<title>Node3</title>
<g id="a_Node000003"><a xlink:href="classconfig__classes_1_1BasicAuth.html" target="_top" xlink:title="Basic Authentication Configuration.">
<polygon fill="white" stroke="#666666" points="153.75,-96 14.75,-96 14.75,-77 153.75,-77 153.75,-96"/>
<text text-anchor="middle" x="84.25" y="-84" font-family="Helvetica,sans-Serif" font-size="10.00">config_classes.BasicAuth</text>
</a>
</g>
</g>
<!-- Node2&#45;&gt;Node3 -->
<g id="edge3_Node000003_Node000002" class="edge">
<title>Node2&#45;&gt;Node3</title>
<g id="a_edge3_Node000003_Node000002"><a xlink:title=" ">
<path fill="none" stroke="#63b8ff" d="M113.83,-124.64C106.33,-115.24 97.31,-103.9 91.22,-96.25"/>
<polygon fill="#63b8ff" stroke="#63b8ff" points="111.18,-126.94 120.15,-132.58 116.66,-122.58 111.18,-126.94"/>
</a>
</g>
</g>
<!-- Node4 -->
<g id="Node000004" class="node">
<title>Node4</title>
<g id="a_Node000004"><a xlink:href="classconfig__classes_1_1OAuth.html" target="_top" xlink:title="Open Authentication Configuration.">
<polygon fill="white" stroke="#666666" points="292.25,-96 172.25,-96 172.25,-77 292.25,-77 292.25,-96"/>
<text text-anchor="middle" x="232.25" y="-84" font-family="Helvetica,sans-Serif" font-size="10.00">config_classes.OAuth</text>
</a>
</g>
</g>
<!-- Node2&#45;&gt;Node4 -->
<g id="edge5_Node000004_Node000002" class="edge">
<title>Node2&#45;&gt;Node4</title>
<g id="a_edge5_Node000004_Node000002"><a xlink:title=" ">
<path fill="none" stroke="#63b8ff" d="M153.06,-128.23C172.5,-118.23 198.6,-104.81 215.42,-96.15"/>
<polygon fill="#63b8ff" stroke="#63b8ff" points="151.41,-125.14 144.12,-132.82 154.61,-131.36 151.41,-125.14"/>
</a>
</g>
</g>
<!-- Node5 -->
<g id="Node000005" class="node">
<title>Node5</title>
<g id="a_Node000005"><a xlink:href="classconfig__classes_1_1BearerAuth.html" target="_top" xlink:title="Bearer Authentication Configuration.">
<polygon fill="white" stroke="#666666" points="455.75,-96 310.75,-96 310.75,-77 455.75,-77 455.75,-96"/>
<text text-anchor="middle" x="383.25" y="-84" font-family="Helvetica,sans-Serif" font-size="10.00">config_classes.BearerAuth</text>
</a>
</g>
</g>
<!-- Node2&#45;&gt;Node5 -->
<g id="edge7_Node000005_Node000002" class="edge">
<title>Node2&#45;&gt;Node5</title>
<g id="a_edge7_Node000005_Node000002"><a xlink:title=" ">
<path fill="none" stroke="#63b8ff" d="M172.71,-131.91C221.01,-121.72 296.64,-105.77 342.9,-96.01"/>
<polygon fill="#63b8ff" stroke="#63b8ff" points="171.91,-128.5 162.84,-133.99 173.35,-135.35 171.91,-128.5"/>
</a>
</g>
</g>
<!-- Node3&#45;&gt;Node1 -->
<g id="edge2_Node000001_Node000003" class="edge">
<title>Node3&#45;&gt;Node1</title>
<g id="a_edge2_Node000001_Node000003"><a xlink:title=" ">
<path fill="none" stroke="#9a32cd" stroke-dasharray="5,2" d="M100.67,-69.87C113.19,-57.95 130.28,-41.67 142.4,-30.14"/>
<polygon fill="#9a32cd" stroke="#9a32cd" points="98.03,-67.55 93.2,-76.98 102.85,-72.62 98.03,-67.55"/>
</a>
</g>
<text text-anchor="middle" x="151.25" y="-51" font-family="Helvetica,sans-Serif" font-size="10.00" fill="grey"> basic_auth</text>
</g>
<!-- Node4&#45;&gt;Node1 -->
<g id="edge4_Node000001_Node000004" class="edge">
<title>Node4&#45;&gt;Node1</title>
<g id="a_edge4_Node000001_Node000004"><a xlink:title=" ">
<path fill="none" stroke="#9a32cd" stroke-dasharray="5,2" d="M215.38,-69.87C202.52,-57.95 184.95,-41.67 172.5,-30.14"/>
<polygon fill="#9a32cd" stroke="#9a32cd" points="213.34,-72.75 223.05,-76.98 218.1,-67.61 213.34,-72.75"/>
</a>
</g>
<text text-anchor="middle" x="220.75" y="-51" font-family="Helvetica,sans-Serif" font-size="10.00" fill="grey"> o_auth</text>
</g>
<!-- Node5&#45;&gt;Node1 -->
<g id="edge6_Node000001_Node000005" class="edge">
<title>Node5&#45;&gt;Node1</title>
<g id="a_edge6_Node000001_Node000005"><a xlink:title=" ">
<path fill="none" stroke="#9a32cd" stroke-dasharray="5,2" d="M345.82,-73.99C306.57,-61.92 244.85,-42.94 202.8,-30.01"/>
<polygon fill="#9a32cd" stroke="#9a32cd" points="344.95,-77.38 355.54,-76.98 347.01,-70.69 344.95,-77.38"/>
</a>
</g>
<text text-anchor="middle" x="322.25" y="-51" font-family="Helvetica,sans-Serif" font-size="10.00" fill="grey"> bearer_auth</text>
</g>
</g>
</svg>
