<?xml version="1.0" encoding="UTF-8" standalone="no"?>
<!DOCTYPE svg PUBLIC "-//W3C//DTD SVG 1.1//EN"
 "http://www.w3.org/Graphics/SVG/1.1/DTD/svg11.dtd">
<!-- Generated by graphviz version 2.43.0 (0)
 -->
<!-- Title: Graphical Class Hierarchy Pages: 1 -->
<svg width="361pt" height="461pt"
 viewBox="0.00 0.00 361.00 461.00" xmlns="http://www.w3.org/2000/svg" xmlns:xlink="http://www.w3.org/1999/xlink">
<g id="graph0" class="graph" transform="scale(1 1) rotate(0) translate(4 457)">
<title>Graphical Class Hierarchy</title>
<!-- Node0 -->
<g id="Node000000" class="node">
<title>Node0</title>
<g id="a_Node000000"><a xlink:title=" ">
<polygon fill="#e0e0e0" stroke="#999999" points="71,-271 0,-271 0,-252 71,-252 71,-271"/>
<text text-anchor="middle" x="35.5" y="-259" font-family="Helvetica,sans-Serif" font-size="10.00">BaseModel</text>
</a>
</g>
</g>
<!-- Node1 -->
<g id="Node000001" class="node">
<title>Node1</title>
<g id="a_Node000001"><a xlink:href="classaas__client_1_1AasHttpClient.html" target="_top" xlink:title="Represents a AasHttpClient to communicate with a REST API.">
<polygon fill="white" stroke="#666666" points="298.5,-453 161.5,-453 161.5,-434 298.5,-434 298.5,-453"/>
<text text-anchor="middle" x="230" y="-441" font-family="Helvetica,sans-Serif" font-size="10.00">aas_client.AasHttpClient</text>
</a>
</g>
</g>
<!-- Node0&#45;&gt;Node1 -->
<g id="edge1_Node000000_Node000001" class="edge">
<title>Node0&#45;&gt;Node1</title>
<g id="a_edge1_Node000000_Node000001"><a xlink:title=" ">
<path fill="none" stroke="#63b8ff" d="M38.94,-281.51C44.35,-316.56 60.77,-388.73 107,-424.5 122.34,-436.37 142.08,-442.22 161.2,-444.83"/>
<polygon fill="#63b8ff" stroke="#63b8ff" points="42.34,-280.57 37.5,-271.15 35.41,-281.54 42.34,-280.57"/>
</a>
</g>
</g>
<!-- Node2 -->
<g id="Node000002" class="node">
<title>Node2</title>
<g id="a_Node000002"><a xlink:href="classconfig__classes_1_1AuthenticationConfig.html" target="_top" xlink:title="Authentication Configuration.">
<polygon fill="white" stroke="#666666" points="310.5,-415.5 149.5,-415.5 149.5,-385.5 310.5,-385.5 310.5,-415.5"/>
<text text-anchor="start" x="157.5" y="-403.5" font-family="Helvetica,sans-Serif" font-size="10.00">config_classes.Authentication</text>
<text text-anchor="middle" x="230" y="-392.5" font-family="Helvetica,sans-Serif" font-size="10.00">Config</text>
</a>
</g>
</g>
<!-- Node0&#45;&gt;Node2 -->
<g id="edge2_Node000000_Node000002" class="edge">
<title>Node0&#45;&gt;Node2</title>
<g id="a_edge2_Node000000_Node000002"><a xlink:title=" ">
<path fill="none" stroke="#63b8ff" d="M42.69,-280.6C52.17,-306.64 72.86,-352.77 107,-376.5 119.5,-385.19 134.36,-390.91 149.34,-394.64"/>
<polygon fill="#63b8ff" stroke="#63b8ff" points="45.98,-279.4 39.4,-271.09 39.36,-281.68 45.98,-279.4"/>
</a>
</g>
</g>
<!-- Node3 -->
<g id="Node000003" class="node">
<title>Node3</title>
<g id="a_Node000003"><a xlink:href="classconfig__classes_1_1BasicAuth.html" target="_top" xlink:title="Basic Authentication Configuration.">
<polygon fill="white" stroke="#666666" points="299.5,-367 160.5,-367 160.5,-348 299.5,-348 299.5,-367"/>
<text text-anchor="middle" x="230" y="-355" font-family="Helvetica,sans-Serif" font-size="10.00">config_classes.BasicAuth</text>
</a>
</g>
</g>
<!-- Node0&#45;&gt;Node3 -->
<g id="edge3_Node000000_Node000003" class="edge">
<title>Node0&#45;&gt;Node3</title>
<g id="a_edge3_Node000000_Node000003"><a xlink:title=" ">
<path fill="none" stroke="#63b8ff" d="M47.53,-279.75C59.67,-298.09 80.96,-325.57 107,-339.5 123.14,-348.13 142.11,-353.01 160.22,-355.67"/>
<polygon fill="#63b8ff" stroke="#63b8ff" points="50.36,-277.68 42.04,-271.12 44.46,-281.43 50.36,-277.68"/>
</a>
</g>
</g>
<!-- Node4 -->
<g id="Node000004" class="node">
<title>Node4</title>
<g id="a_Node000004"><a xlink:href="classconfig__classes_1_1BearerAuth.html" target="_top" xlink:title="Bearer Authentication Configuration.">
<polygon fill="white" stroke="#666666" points="302.5,-330 157.5,-330 157.5,-311 302.5,-311 302.5,-330"/>
<text text-anchor="middle" x="230" y="-318" font-family="Helvetica,sans-Serif" font-size="10.00">config_classes.BearerAuth</text>
</a>
</g>
</g>
<!-- Node0&#45;&gt;Node4 -->
<g id="edge4_Node000000_Node000004" class="edge">
<title>Node0&#45;&gt;Node4</title>
<g id="a_edge4_Node000000_Node000004"><a xlink:title=" ">
<path fill="none" stroke="#63b8ff" d="M58.3,-277.1C71.72,-285.94 89.63,-296.42 107,-302.5 122.86,-308.05 140.47,-311.89 157.26,-314.55"/>
<polygon fill="#63b8ff" stroke="#63b8ff" points="60.02,-274.04 49.79,-271.32 56.09,-279.83 60.02,-274.04"/>
</a>
</g>
</g>
<!-- Node5 -->
<g id="Node000005" class="node">
<title>Node5</title>
<g id="a_Node000005"><a xlink:href="classconfig__classes_1_1OAuth.html" target="_top" xlink:title="Open Authentication Configuration.">
<polygon fill="white" stroke="#666666" points="290,-293 170,-293 170,-274 290,-274 290,-293"/>
<text text-anchor="middle" x="230" y="-281" font-family="Helvetica,sans-Serif" font-size="10.00">config_classes.OAuth</text>
</a>
</g>
</g>
<!-- Node0&#45;&gt;Node5 -->
<g id="edge5_Node000000_Node000005" class="edge">
<title>Node0&#45;&gt;Node5</title>
<g id="a_edge5_Node000000_Node000005"><a xlink:title=" ">
<path fill="none" stroke="#63b8ff" d="M81.44,-266.64C107.78,-269.65 141.36,-273.48 169.84,-276.74"/>
<polygon fill="#63b8ff" stroke="#63b8ff" points="81.69,-263.14 71.36,-265.48 80.9,-270.1 81.69,-263.14"/>
</a>
</g>
</g>
<!-- Node6 -->
<g id="Node000006" class="node">
<title>Node6</title>
<g id="a_Node000006"><a xlink:href="classimplementations_1_1experimental__implementation_1_1ExperimentalImplementation.html" target="_top" xlink:title="Implementation of Asset Administration Shell Registry related API calls.">
<polygon fill="white" stroke="#666666" points="353,-255.5 107,-255.5 107,-225.5 353,-225.5 353,-255.5"/>
<text text-anchor="start" x="115" y="-243.5" font-family="Helvetica,sans-Serif" font-size="10.00">implementations.experimental</text>
<text text-anchor="middle" x="230" y="-232.5" font-family="Helvetica,sans-Serif" font-size="10.00">_implementation.ExperimentalImplementation</text>
</a>
</g>
</g>
<!-- Node0&#45;&gt;Node6 -->
<g id="edge6_Node000000_Node000006" class="edge">
<title>Node0&#45;&gt;Node6</title>
<g id="a_edge6_Node000000_Node000006"><a xlink:title=" ">
<path fill="none" stroke="#63b8ff" d="M81.4,-256.6C89.36,-255.73 97.97,-254.79 106.9,-253.82"/>
<polygon fill="#63b8ff" stroke="#63b8ff" points="80.92,-253.13 71.36,-257.7 81.68,-260.09 80.92,-253.13"/>
</a>
</g>
</g>
<!-- Node7 -->
<g id="Node000007" class="node">
<title>Node7</title>
<g id="a_Node000007"><a xlink:href="classimplementations_1_1shell__implementation_1_1ShellRepoImplementation.html" target="_top" xlink:title="Implementation of Asset Administration Shell related API calls.">
<polygon fill="white" stroke="#666666" points="345,-207.5 115,-207.5 115,-177.5 345,-177.5 345,-207.5"/>
<text text-anchor="start" x="123" y="-195.5" font-family="Helvetica,sans-Serif" font-size="10.00">implementations.shell</text>
<text text-anchor="middle" x="230" y="-184.5" font-family="Helvetica,sans-Serif" font-size="10.00">_implementation.ShellRepoImplementation</text>
</a>
</g>
</g>
<!-- Node0&#45;&gt;Node7 -->
<g id="edge7_Node000000_Node000007" class="edge">
<title>Node0&#45;&gt;Node7</title>
<g id="a_edge7_Node000000_Node000007"><a xlink:title=" ">
<path fill="none" stroke="#63b8ff" d="M56.81,-245.63C70.32,-235.82 88.87,-223.77 107,-216.5 115.62,-213.05 124.78,-210.08 134.06,-207.52"/>
<polygon fill="#63b8ff" stroke="#63b8ff" points="54.63,-242.89 48.71,-251.67 58.81,-248.5 54.63,-242.89"/>
</a>
</g>
</g>
<!-- Node8 -->
<g id="Node000008" class="node">
<title>Node8</title>
<g id="a_Node000008"><a xlink:href="classimplementations_1_1shell__registry__implementation_1_1ShellRegistryImplementation.html" target="_top" xlink:title="Implementation of Asset Administration Shell Registry related API calls.">
<polygon fill="white" stroke="#666666" points="315,-159 145,-159 145,-118 315,-118 315,-159"/>
<text text-anchor="start" x="153" y="-147" font-family="Helvetica,sans-Serif" font-size="10.00">implementations.shell</text>
<text text-anchor="start" x="153" y="-136" font-family="Helvetica,sans-Serif" font-size="10.00">_registry_implementation.Shell</text>
<text text-anchor="middle" x="230" y="-125" font-family="Helvetica,sans-Serif" font-size="10.00">RegistryImplementation</text>
</a>
</g>
</g>
<!-- Node0&#45;&gt;Node8 -->
<g id="edge8_Node000000_Node000008" class="edge">
<title>Node0&#45;&gt;Node8</title>
<g id="a_edge8_Node000000_Node000008"><a xlink:title=" ">
<path fill="none" stroke="#63b8ff" d="M45.61,-242.85C57,-221.55 78.5,-187.24 107,-168.5 118.39,-161.01 131.49,-155.39 144.79,-151.17"/>
<polygon fill="#63b8ff" stroke="#63b8ff" points="42.43,-241.38 40.98,-251.87 48.66,-244.58 42.43,-241.38"/>
</a>
</g>
</g>
<!-- Node9 -->
<g id="Node000009" class="node">
<title>Node9</title>
<g id="a_Node000009"><a xlink:href="classimplementations_1_1sm__implementation_1_1SubmodelRepoImplementation.html" target="_top" xlink:title="Implementation of Submodel related API calls.">
<polygon fill="white" stroke="#666666" points="318,-100 142,-100 142,-59 318,-59 318,-100"/>
<text text-anchor="start" x="150" y="-88" font-family="Helvetica,sans-Serif" font-size="10.00">implementations.sm</text>
<text text-anchor="start" x="150" y="-77" font-family="Helvetica,sans-Serif" font-size="10.00">_implementation.SubmodelRepo</text>
<text text-anchor="middle" x="230" y="-66" font-family="Helvetica,sans-Serif" font-size="10.00">Implementation</text>
</a>
</g>
</g>
<!-- Node0&#45;&gt;Node9 -->
<g id="edge9_Node000000_Node000009" class="edge">
<title>Node0&#45;&gt;Node9</title>
<g id="a_edge9_Node000000_Node000009"><a xlink:title=" ">
<path fill="none" stroke="#63b8ff" d="M39.96,-241.84C46.75,-209.21 65.02,-144.07 107,-109.5 117.1,-101.18 129.17,-95.11 141.73,-90.7"/>
<polygon fill="#63b8ff" stroke="#63b8ff" points="36.47,-241.44 38.01,-251.92 43.34,-242.76 36.47,-241.44"/>
</a>
</g>
</g>
<!-- Node10 -->
<g id="Node000010" class="node">
<title>Node10</title>
<g id="a_Node000010"><a xlink:href="classimplementations_1_1sm__registry__implementation_1_1SubmodelRegistryImplementation.html" target="_top" xlink:title="Implementation of Submodel Registry related API calls.">
<polygon fill="white" stroke="#666666" points="327,-41 133,-41 133,0 327,0 327,-41"/>
<text text-anchor="start" x="141" y="-29" font-family="Helvetica,sans-Serif" font-size="10.00">implementations.sm</text>
<text text-anchor="start" x="141" y="-18" font-family="Helvetica,sans-Serif" font-size="10.00">_registry_implementation.Submodel</text>
<text text-anchor="middle" x="230" y="-7" font-family="Helvetica,sans-Serif" font-size="10.00">RegistryImplementation</text>
</a>
</g>
</g>
<!-- Node0&#45;&gt;Node10 -->
<g id="edge10_Node000000_Node000010" class="edge">
<title>Node0&#45;&gt;Node10</title>
<g id="a_edge10_Node000000_Node000010"><a xlink:title=" ">
<path fill="none" stroke="#63b8ff" d="M37.08,-241.54C39.41,-199.65 50.93,-102.18 107,-50.5 114.54,-43.55 123.42,-38.14 132.9,-33.94"/>
<polygon fill="#63b8ff" stroke="#63b8ff" points="33.57,-241.65 36.63,-251.8 40.56,-241.96 33.57,-241.65"/>
</a>
</g>
</g>
</g>
</svg>
