<?xml version="1.0" encoding="UTF-8" standalone="no"?>
<!DOCTYPE svg PUBLIC "-//W3C//DTD SVG 1.1//EN"
 "http://www.w3.org/Graphics/SVG/1.1/DTD/svg11.dtd">
<!-- Generated by graphviz version 2.43.0 (0)
 -->
<!-- Title: Graphical Class Hierarchy Pages: 1 -->
<svg width="264pt" height="187pt"
 viewBox="0.00 0.00 264.00 186.50" xmlns="http://www.w3.org/2000/svg" xmlns:xlink="http://www.w3.org/1999/xlink">
<g id="graph0" class="graph" transform="scale(1 1) rotate(0) translate(4 182.5)">
<title>Graphical Class Hierarchy</title>
<!-- Node0 -->
<g id="Node000000" class="node">
<title>Node0</title>
<g id="a_Node000000"><a xlink:title=" ">
<polygon fill="#e0e0e0" stroke="#999999" points="44,-93 0,-93 0,-74 44,-74 44,-93"/>
<text text-anchor="middle" x="22" y="-81" font-family="Helvetica,sans-Serif" font-size="10.00">Enum</text>
</a>
</g>
</g>
<!-- Node1 -->
<g id="Node000001" class="node">
<title>Node1</title>
<g id="a_Node000001"><a xlink:href="classimplementations_1_1authentication_1_1AuthMethod.html" target="_top" xlink:title="Defines authentication methods.">
<polygon fill="white" stroke="#666666" points="256,-178.5 80,-178.5 80,-148.5 256,-148.5 256,-178.5"/>
<text text-anchor="start" x="88" y="-166.5" font-family="Helvetica,sans-Serif" font-size="10.00">implementations.authentication.</text>
<text text-anchor="middle" x="168" y="-155.5" font-family="Helvetica,sans-Serif" font-size="10.00">AuthMethod</text>
</a>
</g>
</g>
<!-- Node0&#45;&gt;Node1 -->
<g id="edge11_Node000000_Node000001" class="edge">
<title>Node0&#45;&gt;Node1</title>
<g id="a_edge11_Node000000_Node000001"><a xlink:title=" ">
<path fill="none" stroke="#63b8ff" d="M36.83,-101.24C47.4,-113.65 63.01,-129.71 80,-139.5 85.97,-142.94 92.46,-145.91 99.12,-148.47"/>
<polygon fill="#63b8ff" stroke="#63b8ff" points="39.41,-98.86 30.36,-93.35 33.99,-103.3 39.41,-98.86"/>
</a>
</g>
</g>
<!-- Node2 -->
<g id="Node000002" class="node">
<title>Node2</title>
<g id="a_Node000002"><a xlink:href="classsdk__wrapper_1_1AssetKind.html" target="_top" xlink:title="Determines to which asset kind the resource is being serialized.">
<polygon fill="white" stroke="#666666" points="233,-130 103,-130 103,-111 233,-111 233,-130"/>
<text text-anchor="middle" x="168" y="-118" font-family="Helvetica,sans-Serif" font-size="10.00">sdk_wrapper.AssetKind</text>
</a>
</g>
</g>
<!-- Node0&#45;&gt;Node2 -->
<g id="edge12_Node000000_Node000002" class="edge">
<title>Node0&#45;&gt;Node2</title>
<g id="a_edge12_Node000000_Node000002"><a xlink:title=" ">
<path fill="none" stroke="#63b8ff" d="M53.7,-94.47C62.16,-97.29 71.38,-100.18 80,-102.5 91.47,-105.59 103.91,-108.44 115.7,-110.93"/>
<polygon fill="#63b8ff" stroke="#63b8ff" points="54.8,-91.15 44.2,-91.23 52.54,-97.77 54.8,-91.15"/>
</a>
</g>
</g>
<!-- Node3 -->
<g id="Node000003" class="node">
<title>Node3</title>
<g id="a_Node000003"><a xlink:href="classsdk__wrapper_1_1Extent.html" target="_top" xlink:title="Determines to which extent the resource is being serialized.">
<polygon fill="white" stroke="#666666" points="224.5,-93 111.5,-93 111.5,-74 224.5,-74 224.5,-93"/>
<text text-anchor="middle" x="168" y="-81" font-family="Helvetica,sans-Serif" font-size="10.00">sdk_wrapper.Extent</text>
</a>
</g>
</g>
<!-- Node0&#45;&gt;Node3 -->
<g id="edge13_Node000000_Node000003" class="edge">
<title>Node0&#45;&gt;Node3</title>
<g id="a_edge13_Node000000_Node000003"><a xlink:title=" ">
<path fill="none" stroke="#63b8ff" d="M54.52,-83.5C71.19,-83.5 92.14,-83.5 111.44,-83.5"/>
<polygon fill="#63b8ff" stroke="#63b8ff" points="54.25,-80 44.25,-83.5 54.25,-87 54.25,-80"/>
</a>
</g>
</g>
<!-- Node4 -->
<g id="Node000004" class="node">
<title>Node4</title>
<g id="a_Node000004"><a xlink:href="classsdk__wrapper_1_1IdEncoding.html" target="_top" xlink:title="Determines the ID encoding mode for API requests.">
<polygon fill="white" stroke="#666666" points="235,-56 101,-56 101,-37 235,-37 235,-56"/>
<text text-anchor="middle" x="168" y="-44" font-family="Helvetica,sans-Serif" font-size="10.00">sdk_wrapper.IdEncoding</text>
</a>
</g>
</g>
<!-- Node0&#45;&gt;Node4 -->
<g id="edge14_Node000000_Node000004" class="edge">
<title>Node0&#45;&gt;Node4</title>
<g id="a_edge14_Node000000_Node000004"><a xlink:title=" ">
<path fill="none" stroke="#63b8ff" d="M54.03,-73.14C62.42,-70.49 71.52,-67.76 80,-65.5 92.7,-62.12 106.55,-58.88 119.4,-56.08"/>
<polygon fill="#63b8ff" stroke="#63b8ff" points="52.7,-69.89 44.25,-76.28 54.84,-76.55 52.7,-69.89"/>
</a>
</g>
</g>
<!-- Node5 -->
<g id="Node000005" class="node">
<title>Node5</title>
<g id="a_Node000005"><a xlink:href="classsdk__wrapper_1_1Level.html" target="_top" xlink:title="Determines the structural depth of the respective resource content.">
<polygon fill="white" stroke="#666666" points="221.5,-19 114.5,-19 114.5,0 221.5,0 221.5,-19"/>
<text text-anchor="middle" x="168" y="-7" font-family="Helvetica,sans-Serif" font-size="10.00">sdk_wrapper.Level</text>
</a>
</g>
</g>
<!-- Node0&#45;&gt;Node5 -->
<g id="edge15_Node000000_Node000005" class="edge">
<title>Node0&#45;&gt;Node5</title>
<g id="a_edge15_Node000000_Node000005"><a xlink:title=" ">
<path fill="none" stroke="#63b8ff" d="M36.74,-65.81C47.27,-53.49 62.86,-37.67 80,-28.5 90.5,-22.88 102.55,-18.93 114.27,-16.14"/>
<polygon fill="#63b8ff" stroke="#63b8ff" points="33.94,-63.71 30.3,-73.66 39.35,-68.15 33.94,-63.71"/>
</a>
</g>
</g>
</g>
</svg>
