<?xml version="1.0" encoding="UTF-8" standalone="no"?>
<!DOCTYPE svg PUBLIC "-//W3C//DTD SVG 1.1//EN"
 "http://www.w3.org/Graphics/SVG/1.1/DTD/svg11.dtd">
<!-- Generated by graphviz version 2.43.0 (0)
 -->
<!-- Title: demo_process.start Pages: 1 -->
<svg width="289pt" height="86pt"
 viewBox="0.00 0.00 289.00 86.00" xmlns="http://www.w3.org/2000/svg" xmlns:xlink="http://www.w3.org/1999/xlink">
<g id="graph0" class="graph" transform="scale(1 1) rotate(0) translate(4 82)">
<title>demo_process.start</title>
<!-- Node1 -->
<g id="Node000001" class="node">
<title>Node1</title>
<g id="a_Node000001"><a xlink:title="Start the demo process.">
<polygon fill="#999999" stroke="#666666" points="113,-48.5 0,-48.5 0,-29.5 113,-29.5 113,-48.5"/>
<text text-anchor="middle" x="56.5" y="-36.5" font-family="Helvetica,sans-Serif" font-size="10.00">demo_process.start</text>
</a>
</g>
</g>
<!-- Node2 -->
<g id="Node000002" class="node">
<title>Node2</title>
<g id="a_Node000002"><a xlink:href="namespaceaas__client.html#a95b4eeba2847cffd970449c30123e8a9" target="_top" xlink:title="Create a HTTP client for a AAS server connection from the given parameters.">
<polygon fill="white" stroke="#666666" points="281,-78 149,-78 149,-48 281,-48 281,-78"/>
<text text-anchor="start" x="157" y="-66" font-family="Helvetica,sans-Serif" font-size="10.00">aas_client.create_client</text>
<text text-anchor="middle" x="215" y="-55" font-family="Helvetica,sans-Serif" font-size="10.00">_by_url</text>
</a>
</g>
</g>
<!-- Node1&#45;&gt;Node2 -->
<g id="edge1_Node000001_Node000002" class="edge">
<title>Node1&#45;&gt;Node2</title>
<g id="a_edge1_Node000001_Node000002"><a xlink:title=" ">
<path fill="none" stroke="#63b8ff" d="M113.12,-47.53C121.45,-48.81 130.16,-50.14 138.82,-51.47"/>
<polygon fill="#63b8ff" stroke="#63b8ff" points="138.52,-54.97 148.94,-53.02 139.59,-48.05 138.52,-54.97"/>
</a>
</g>
</g>
<!-- Node3 -->
<g id="Node000003" class="node">
<title>Node3</title>
<g id="a_Node000003"><a xlink:href="namespacesdk__wrapper.html#af1a9de558e9060cb1729a08c83789774" target="_top" xlink:title="Create a wrapper for a AAS server connection from the given parameters.">
<polygon fill="white" stroke="#666666" points="271,-30 159,-30 159,0 271,0 271,-30"/>
<text text-anchor="start" x="167" y="-18" font-family="Helvetica,sans-Serif" font-size="10.00">sdk_wrapper.create</text>
<text text-anchor="middle" x="215" y="-7" font-family="Helvetica,sans-Serif" font-size="10.00">_wrapper_by_url</text>
</a>
</g>
</g>
<!-- Node1&#45;&gt;Node3 -->
<g id="edge2_Node000001_Node000003" class="edge">
<title>Node1&#45;&gt;Node3</title>
<g id="a_edge2_Node000001_Node000003"><a xlink:title=" ">
<path fill="none" stroke="#63b8ff" d="M113.12,-30.47C124.6,-28.71 136.8,-26.84 148.59,-25.03"/>
<polygon fill="#63b8ff" stroke="#63b8ff" points="149.47,-28.44 158.83,-23.46 148.41,-21.52 149.47,-28.44"/>
</a>
</g>
</g>
</g>
</svg>
