<?xml version="1.0" encoding="UTF-8" standalone="no"?>
<!DOCTYPE svg PUBLIC "-//W3C//DTD SVG 1.1//EN"
 "http://www.w3.org/Graphics/SVG/1.1/DTD/svg11.dtd">
<!-- Generated by graphviz version 2.43.0 (0)
 -->
<!-- Title: implementations.authentication._get_token_from_endpoint Pages: 1 -->
<svg width="640pt" height="86pt"
 viewBox="0.00 0.00 640.00 86.00" xmlns="http://www.w3.org/2000/svg" xmlns:xlink="http://www.w3.org/1999/xlink">
<g id="graph0" class="graph" transform="scale(1 1) rotate(0) translate(4 82)">
<title>implementations.authentication._get_token_from_endpoint</title>
<!-- Node1 -->
<g id="Node000001" class="node">
<title>Node1</title>
<g id="a_Node000001"><a xlink:title="Get token from a specific authentication service provider.">
<polygon fill="#999999" stroke="#666666" points="632,-54 456,-54 456,-24 632,-24 632,-54"/>
<text text-anchor="start" x="464" y="-42" font-family="Helvetica,sans-Serif" font-size="10.00">implementations.authentication.</text>
<text text-anchor="middle" x="544" y="-31" font-family="Helvetica,sans-Serif" font-size="10.00">_get_token_from_endpoint</text>
</a>
</g>
</g>
<!-- Node2 -->
<g id="Node000002" class="node">
<title>Node2</title>
<g id="a_Node000002"><a xlink:href="namespaceimplementations_1_1authentication.html#a63c9a610f0e734619ed4abdf7d50be29" target="_top" xlink:title="Get token from a specific authentication service provider by basic authentication.">
<polygon fill="white" stroke="#666666" points="420,-78 228,-78 228,-48 420,-48 420,-78"/>
<text text-anchor="start" x="236" y="-66" font-family="Helvetica,sans-Serif" font-size="10.00">implementations.authentication.get</text>
<text text-anchor="middle" x="324" y="-55" font-family="Helvetica,sans-Serif" font-size="10.00">_token_by_basic_auth</text>
</a>
</g>
</g>
<!-- Node1&#45;&gt;Node2 -->
<g id="edge1_Node000001_Node000002" class="edge">
<title>Node1&#45;&gt;Node2</title>
<g id="a_edge1_Node000001_Node000002"><a xlink:title=" ">
<path fill="none" stroke="#63b8ff" d="M445.92,-49.69C437.37,-50.63 428.73,-51.58 420.19,-52.52"/>
<polygon fill="#63b8ff" stroke="#63b8ff" points="446.34,-53.16 455.9,-48.59 445.58,-46.2 446.34,-53.16"/>
</a>
</g>
</g>
<!-- Node4 -->
<g id="Node000004" class="node">
<title>Node4</title>
<g id="a_Node000004"><a xlink:href="namespaceimplementations_1_1authentication.html#af808a9898e5713c43170bc07922af43e" target="_top" xlink:title="Get token from a specific authentication service provider by username and password.">
<polygon fill="white" stroke="#666666" points="420,-30 228,-30 228,0 420,0 420,-30"/>
<text text-anchor="start" x="236" y="-18" font-family="Helvetica,sans-Serif" font-size="10.00">implementations.authentication.get</text>
<text text-anchor="middle" x="324" y="-7" font-family="Helvetica,sans-Serif" font-size="10.00">_token_by_password</text>
</a>
</g>
</g>
<!-- Node1&#45;&gt;Node4 -->
<g id="edge3_Node000001_Node000004" class="edge">
<title>Node1&#45;&gt;Node4</title>
<g id="a_edge3_Node000001_Node000004"><a xlink:title=" ">
<path fill="none" stroke="#63b8ff" d="M445.92,-28.31C437.37,-27.37 428.73,-26.42 420.19,-25.48"/>
<polygon fill="#63b8ff" stroke="#63b8ff" points="445.58,-31.8 455.9,-29.41 446.34,-24.84 445.58,-31.8"/>
</a>
</g>
</g>
<!-- Node3 -->
<g id="Node000003" class="node">
<title>Node3</title>
<g id="a_Node000003"><a xlink:href="namespaceimplementations_1_1authentication.html#a2149b949d41e0f5ecded8ceefad37e85" target="_top" xlink:title="Get token based on the provided OAuth configuration.">
<polygon fill="white" stroke="#666666" points="192,-54 0,-54 0,-24 192,-24 192,-54"/>
<text text-anchor="start" x="8" y="-42" font-family="Helvetica,sans-Serif" font-size="10.00">implementations.authentication.get</text>
<text text-anchor="middle" x="96" y="-31" font-family="Helvetica,sans-Serif" font-size="10.00">_token</text>
</a>
</g>
</g>
<!-- Node2&#45;&gt;Node3 -->
<g id="edge2_Node000002_Node000003" class="edge">
<title>Node2&#45;&gt;Node3</title>
<g id="a_edge2_Node000002_Node000003"><a xlink:title=" ">
<path fill="none" stroke="#63b8ff" d="M217.78,-51.83C209.21,-50.92 200.58,-50 192.08,-49.1"/>
<polygon fill="#63b8ff" stroke="#63b8ff" points="217.5,-55.32 227.81,-52.89 218.24,-48.35 217.5,-55.32"/>
</a>
</g>
</g>
<!-- Node4&#45;&gt;Node3 -->
<g id="edge4_Node000004_Node000003" class="edge">
<title>Node4&#45;&gt;Node3</title>
<g id="a_edge4_Node000004_Node000003"><a xlink:title=" ">
<path fill="none" stroke="#63b8ff" d="M217.78,-26.17C209.21,-27.08 200.58,-28 192.08,-28.9"/>
<polygon fill="#63b8ff" stroke="#63b8ff" points="218.24,-29.65 227.81,-25.11 217.5,-22.68 218.24,-29.65"/>
</a>
</g>
</g>
</g>
</svg>
