<?xml version="1.0" encoding="UTF-8" standalone="no"?>
<!DOCTYPE svg PUBLIC "-//W3C//DTD SVG 1.1//EN"
 "http://www.w3.org/Graphics/SVG/1.1/DTD/svg11.dtd">
<!-- Generated by graphviz version 2.43.0 (0)
 -->
<!-- Title: implementations.authentication.get_token Pages: 1 -->
<svg width="640pt" height="86pt"
 viewBox="0.00 0.00 640.00 86.00" xmlns="http://www.w3.org/2000/svg" xmlns:xlink="http://www.w3.org/1999/xlink">
<g id="graph0" class="graph" transform="scale(1 1) rotate(0) translate(4 82)">
<title>implementations.authentication.get_token</title>
<!-- Node1 -->
<g id="Node000001" class="node">
<title>Node1</title>
<g id="a_Node000001"><a xlink:title="Get token based on the provided OAuth configuration.">
<polygon fill="#999999" stroke="#666666" points="192,-54 0,-54 0,-24 192,-24 192,-54"/>
<text text-anchor="start" x="8" y="-42" font-family="Helvetica,sans-Serif" font-size="10.00">implementations.authentication.get</text>
<text text-anchor="middle" x="96" y="-31" font-family="Helvetica,sans-Serif" font-size="10.00">_token</text>
</a>
</g>
</g>
<!-- Node2 -->
<g id="Node000002" class="node">
<title>Node2</title>
<g id="a_Node000002"><a xlink:href="namespaceimplementations_1_1authentication.html#a63c9a610f0e734619ed4abdf7d50be29" target="_top" xlink:title="Get token from a specific authentication service provider by basic authentication.">
<polygon fill="white" stroke="#666666" points="420,-78 228,-78 228,-48 420,-48 420,-78"/>
<text text-anchor="start" x="236" y="-66" font-family="Helvetica,sans-Serif" font-size="10.00">implementations.authentication.get</text>
<text text-anchor="middle" x="324" y="-55" font-family="Helvetica,sans-Serif" font-size="10.00">_token_by_basic_auth</text>
</a>
</g>
</g>
<!-- Node1&#45;&gt;Node2 -->
<g id="edge1_Node000001_Node000002" class="edge">
<title>Node1&#45;&gt;Node2</title>
<g id="a_edge1_Node000001_Node000002"><a xlink:title=" ">
<path fill="none" stroke="#63b8ff" d="M192.19,-49.11C200.69,-50.01 209.32,-50.93 217.9,-51.84"/>
<polygon fill="#63b8ff" stroke="#63b8ff" points="217.61,-55.33 227.92,-52.9 218.35,-48.37 217.61,-55.33"/>
</a>
</g>
</g>
<!-- Node4 -->
<g id="Node000004" class="node">
<title>Node4</title>
<g id="a_Node000004"><a xlink:href="namespaceimplementations_1_1authentication.html#af808a9898e5713c43170bc07922af43e" target="_top" xlink:title="Get token from a specific authentication service provider by username and password.">
<polygon fill="white" stroke="#666666" points="420,-30 228,-30 228,0 420,0 420,-30"/>
<text text-anchor="start" x="236" y="-18" font-family="Helvetica,sans-Serif" font-size="10.00">implementations.authentication.get</text>
<text text-anchor="middle" x="324" y="-7" font-family="Helvetica,sans-Serif" font-size="10.00">_token_by_password</text>
</a>
</g>
</g>
<!-- Node1&#45;&gt;Node4 -->
<g id="edge3_Node000001_Node000004" class="edge">
<title>Node1&#45;&gt;Node4</title>
<g id="a_edge3_Node000001_Node000004"><a xlink:title=" ">
<path fill="none" stroke="#63b8ff" d="M192.19,-28.89C200.69,-27.99 209.32,-27.07 217.9,-26.16"/>
<polygon fill="#63b8ff" stroke="#63b8ff" points="218.35,-29.63 227.92,-25.1 217.61,-22.67 218.35,-29.63"/>
</a>
</g>
</g>
<!-- Node3 -->
<g id="Node000003" class="node">
<title>Node3</title>
<g id="a_Node000003"><a xlink:href="namespaceimplementations_1_1authentication.html#a6ae5282fe128b4530457a0317508c464" target="_top" xlink:title="Get token from a specific authentication service provider.">
<polygon fill="white" stroke="#666666" points="632,-54 456,-54 456,-24 632,-24 632,-54"/>
<text text-anchor="start" x="464" y="-42" font-family="Helvetica,sans-Serif" font-size="10.00">implementations.authentication.</text>
<text text-anchor="middle" x="544" y="-31" font-family="Helvetica,sans-Serif" font-size="10.00">_get_token_from_endpoint</text>
</a>
</g>
</g>
<!-- Node2&#45;&gt;Node3 -->
<g id="edge2_Node000002_Node000003" class="edge">
<title>Node2&#45;&gt;Node3</title>
<g id="a_edge2_Node000002_Node000003"><a xlink:title=" ">
<path fill="none" stroke="#63b8ff" d="M420.3,-52.51C428.69,-51.58 437.19,-50.65 445.6,-49.72"/>
<polygon fill="#63b8ff" stroke="#63b8ff" points="446.23,-53.17 455.79,-48.6 445.47,-46.22 446.23,-53.17"/>
</a>
</g>
</g>
<!-- Node4&#45;&gt;Node3 -->
<g id="edge4_Node000004_Node000003" class="edge">
<title>Node4&#45;&gt;Node3</title>
<g id="a_edge4_Node000004_Node000003"><a xlink:title=" ">
<path fill="none" stroke="#63b8ff" d="M420.3,-25.49C428.69,-26.42 437.19,-27.35 445.6,-28.28"/>
<polygon fill="#63b8ff" stroke="#63b8ff" points="445.47,-31.78 455.79,-29.4 446.23,-24.83 445.47,-31.78"/>
</a>
</g>
</g>
</g>
</svg>
